<svg width="1069" height="388" viewBox="0 0 1069 388" fill="none" xmlns="http://www.w3.org/2000/svg">
<path d="M84.1835 21.4453V89.7827C84.1835 94.6586 81.0527 98.9448 76.5484 100.812C31.6098 119.441 0 163.733 0 215.409C0 283.892 55.5167 339.409 124 339.409C192.483 339.409 248 283.892 248 215.409C248 164.13 216.873 120.121 172.483 101.245C168.034 99.3532 164.954 95.0933 164.954 90.2583V21.4453H84.1835Z" fill="white"/>
<ellipse cx="164.386" cy="230.199" rx="78.4954" ry="27.8716" fill="#476FFF"/>
<path fill-rule="evenodd" clip-rule="evenodd" d="M1.19922 232.738C14.5813 221.988 33.4336 210.306 53.0675 204.613C76.1421 197.921 98.6014 199.792 115.962 218.94C140.289 245.774 171.969 246.699 199.523 238.324C217.407 232.889 234.305 223.398 247.985 213.637C247.993 214.227 247.997 214.817 247.997 215.409C247.997 283.892 192.481 339.409 123.998 339.409C61.3954 339.409 9.62837 293.017 1.19922 232.738Z" fill="#011AFF"/>
<ellipse cx="124.569" cy="21.4457" rx="40.3853" ry="7.9633" fill="#CDCDCD"/>
<rect x="214" y="14" width="58" height="325" fill="#FFB547"/>
<rect x="242" y="14" width="30" height="10" fill="#905600"/>
<rect x="242" y="59" width="30" height="10" fill="#905600"/>
<rect x="242" y="104" width="30" height="10" fill="#905600"/>
<rect x="242" y="149" width="30" height="10" fill="#905600"/>
<rect x="242" y="194" width="30" height="10" fill="#905600"/>
<rect x="242" y="239" width="30" height="10" fill="#905600"/>
<rect x="242" y="284" width="30" height="10" fill="#905600"/>
<rect x="242" y="329" width="30" height="10" fill="#905600"/>
<path d="M412.95 150V44.85H433.05V86.4H480.15V45H500.1V150H480.15V106.35H433.05V150H412.95ZM574.734 75H592.434V150H574.734V142.5C574.334 142.8 573.984 143.15 573.684 143.55C573.484 143.85 573.184 144.15 572.784 144.45C567.584 149.35 560.834 151.8 552.534 151.8C541.834 151.8 532.934 148 525.834 140.4C518.734 132.8 515.184 123.5 515.184 112.5C515.184 101.5 518.734 92.2 525.834 84.6C532.934 77 541.834 73.2 552.534 73.2C560.434 73.2 567.034 75.65 572.334 80.55C572.834 80.95 573.234 81.4 573.534 81.9C573.934 82.3 574.334 82.7 574.734 83.1V75ZM554.184 93C548.784 93 544.334 94.85 540.834 98.55C537.334 102.35 535.584 107 535.584 112.5C535.584 117.9 537.334 122.5 540.834 126.3C544.334 130.1 548.784 132 554.184 132C559.484 132 563.884 130.1 567.384 126.3C568.984 124.5 570.234 122.45 571.134 120.15C572.034 117.75 572.484 115.2 572.484 112.5C572.484 109.7 572.034 107.15 571.134 104.85C570.234 102.55 568.984 100.45 567.384 98.55C563.884 94.85 559.484 93 554.184 93ZM601.383 75H623.133L644.583 124.05L665.133 75H686.883L650.433 161.85C649.033 164.85 647.283 167.55 645.183 169.95C643.083 172.35 640.633 174.45 637.833 176.25C632.133 179.95 625.883 181.8 619.083 181.8H610.683V161.85H619.083C622.083 161.85 624.733 161.15 627.033 159.75C629.233 158.35 630.883 156.4 631.983 153.9L633.933 149.4L601.383 75ZM691.998 75H711.948V97.95C711.948 101.75 713.298 104.95 715.998 107.55C718.598 110.15 721.748 111.45 725.448 111.45H735.048V75H754.998V150H735.048V131.55H725.448C715.548 131.55 707.498 128.3 701.298 121.8C695.098 115.3 691.998 107.35 691.998 97.95V75ZM771.48 150V75H791.43V102.45H815.13V75H835.23V150H815.13V122.55H791.43V150H771.48ZM882.657 109.35C879.457 109.35 876.707 110.45 874.407 112.65C872.207 114.85 871.107 117.55 871.107 120.75C871.107 123.95 872.207 126.7 874.407 129C876.707 131.2 879.457 132.3 882.657 132.3C885.857 132.3 888.557 131.2 890.757 129C892.957 126.7 894.057 123.95 894.057 120.75C894.057 117.55 892.957 114.85 890.757 112.65C888.557 110.45 885.857 109.35 882.657 109.35ZM882.657 89.85C891.257 89.85 898.557 92.85 904.557 98.85C910.557 104.85 913.557 112.15 913.557 120.75C913.557 129.35 910.557 136.65 904.557 142.65C898.557 148.75 891.257 151.8 882.657 151.8C874.057 151.8 866.757 148.75 860.757 142.65C854.657 136.65 851.607 129.35 851.607 120.75V75H871.107V93C872.807 91.9 874.607 91.1 876.507 90.6C878.407 90.1 880.457 89.85 882.657 89.85ZM920.157 75H939.657V150H920.157V75ZM964.151 45H979.901C979.901 47.1 980.801 48.85 982.601 50.25C984.501 51.75 986.751 52.5 989.351 52.5C991.951 52.5 994.201 51.75 996.101 50.25C997.901 48.85 998.801 47.1 998.801 45H1014.55C1014.55 51.2 1012.15 56.5 1007.35 60.9C1002.55 65.2 996.601 67.35 989.501 67.35C982.101 67.35 976.051 65.2 971.351 60.9C966.551 56.5 964.151 51.2 964.151 45ZM954.851 75H974.801V114.75C974.801 119.85 976.251 123.95 979.151 127.05C982.051 130.25 985.651 131.85 989.951 131.85C994.251 131.85 997.851 130.25 1000.75 127.05C1003.65 123.95 1005.1 119.85 1005.1 114.75V75H1025.05V150H1006.3V142.95C1005.9 143.35 1005.55 143.75 1005.25 144.15C1004.95 144.45 1004.6 144.75 1004.2 145.05C999.701 149.55 993.751 151.8 986.351 151.8C976.751 151.8 969.101 148.3 963.401 141.3C960.501 137.8 958.351 133.8 956.951 129.3C955.551 124.7 954.851 119.6 954.851 114V75ZM444.75 267.2C455.45 267.2 464.5 271 471.9 278.6L457.8 292.85C454.3 289.05 449.95 287.15 444.75 287.15C439.45 287.15 435.05 289.05 431.55 292.85C428.05 296.55 426.3 301.1 426.3 306.5C426.3 311.9 428.05 316.45 431.55 320.15C435.05 323.95 439.45 325.85 444.75 325.85C449.95 325.85 454.3 323.95 457.8 320.15L471.9 334.4C464.5 342 455.45 345.8 444.75 345.8C433.85 345.8 424.7 341.95 417.3 334.25C409.9 326.65 406.2 317.4 406.2 306.5C406.2 295.6 409.9 286.3 417.3 278.6C424.7 271 433.85 267.2 444.75 267.2ZM553.56 314H501.51C502.01 315.6 502.71 317.1 503.61 318.5C504.61 319.9 505.76 321.1 507.06 322.1C510.26 324.6 513.96 325.85 518.16 325.85C524.86 325.85 530.11 323.95 533.91 320.15L547.86 334.4C540.36 342 530.46 345.8 518.16 345.8C507.36 345.8 498.11 341.95 490.41 334.25C482.61 326.55 478.71 317.3 478.71 306.5C478.71 295.6 482.46 286.3 489.96 278.6C497.26 271 506.36 267.2 517.26 267.2C527.56 267.2 536.26 271 543.36 278.6C550.16 285.9 553.56 295.2 553.56 306.5V314ZM516.81 286.25C512.71 286.25 509.16 287.45 506.16 289.85C503.76 292.05 502.06 294.75 501.06 297.95H531.51C530.51 294.45 528.86 291.65 526.56 289.55C523.96 287.35 520.71 286.25 516.81 286.25ZM564.498 344V239H584.448V296L609.498 269H636.348L606.798 301.4L637.248 344H612.498L592.998 316.4L584.448 325.7V344H564.498ZM765.029 344H745.079V304.25C745.079 299.05 743.679 294.9 740.879 291.8C738.079 288.7 734.579 287.15 730.379 287.15C726.179 287.15 722.679 288.7 719.879 291.8C717.179 294.9 715.829 299.05 715.829 304.25V344H695.729V304.25C695.729 299.05 694.379 294.9 691.679 291.8C688.879 288.7 685.379 287.15 681.179 287.15C676.979 287.15 673.479 288.7 670.679 291.8C667.879 294.9 666.479 299.05 666.479 304.25V344H646.529V269H665.279V275.9C665.479 275.6 665.679 275.35 665.879 275.15C666.179 274.95 666.429 274.75 666.629 274.55C671.129 269.65 677.179 267.2 684.779 267.2C694.179 267.2 701.729 270.7 707.429 277.7C707.929 278.3 708.379 278.95 708.779 279.65C709.179 280.25 709.579 280.9 709.979 281.6C710.279 280.8 710.629 280.1 711.029 279.5C711.429 278.8 711.829 278.15 712.229 277.55C717.329 270.65 724.579 267.2 733.979 267.2C743.479 267.2 751.029 270.7 756.629 277.7C759.429 281.2 761.529 285.25 762.929 289.85C764.329 294.35 765.029 299.4 765.029 305V344ZM814.623 267.2C825.423 267.2 834.473 271.05 841.773 278.75C849.273 286.35 853.023 295.6 853.023 306.5C853.023 317.4 849.273 326.65 841.773 334.25C834.473 341.95 825.423 345.8 814.623 345.8C803.723 345.8 794.623 341.95 787.323 334.25C779.823 326.65 776.073 317.4 776.073 306.5C776.073 295.6 779.823 286.35 787.323 278.75C794.623 271.05 803.723 267.2 814.623 267.2ZM814.623 287.15C809.323 287.15 804.923 289.05 801.423 292.85C799.623 294.65 798.273 296.7 797.373 299C796.573 301.3 796.173 303.8 796.173 306.5C796.173 311.9 797.923 316.45 801.423 320.15C804.923 323.95 809.323 325.85 814.623 325.85C819.823 325.85 824.173 323.95 827.673 320.15C829.473 318.35 830.773 316.3 831.573 314C832.473 311.7 832.923 309.2 832.923 306.5C832.923 301.1 831.173 296.55 827.673 292.85C824.173 289.05 819.823 287.15 814.623 287.15ZM884.123 269V276.5C884.423 276.1 884.723 275.75 885.023 275.45C885.423 275.05 885.823 274.7 886.223 274.4C891.423 269.6 898.123 267.2 906.323 267.2C917.023 267.2 925.923 271 933.023 278.6C940.023 286.2 943.523 295.5 943.523 306.5C943.523 317.5 940.023 326.8 933.023 334.4C925.923 342 917.023 345.8 906.323 345.8C899.023 345.8 892.923 343.7 888.023 339.5C887.723 339.2 887.423 338.9 887.123 338.6C886.823 338.3 886.523 338 886.223 337.7V374H866.273V269H884.123ZM904.523 326C909.923 326 914.423 324.1 918.023 320.3C921.523 316.5 923.273 311.9 923.273 306.5C923.273 301 921.523 296.35 918.023 292.55C914.423 288.85 909.923 287 904.523 287C899.223 287 894.873 288.85 891.473 292.55C887.973 296.35 886.223 301 886.223 306.5C886.223 311.9 887.973 316.5 891.473 320.3C894.873 324.1 899.223 326 904.523 326Z" fill="white"/>
</svg>
